<?xml version="1.0" encoding="UTF-8"?>
<svg width="11px" height="19px" viewBox="0 0 11 19" version="1.1" xmlns="http://www.w3.org/2000/svg" xmlns:xlink="http://www.w3.org/1999/xlink">
    <!-- Generator: sketchtool 51 (57462) - http://www.bohemiancoding.com/sketch -->
    <title>B9499969-043F-48CE-A2BA-92891E51F519</title>
    <desc>Created with sketchtool.</desc>
    <defs></defs>
    <g id="HomePage" stroke="none" stroke-width="1" fill="none" fill-rule="evenodd">
        <g id="Indedx_desktop" transform="translate(-1188.000000, -686.000000)">
            <rect fill="none" x="0" y="0" width="1440" height="7895"></rect>
            <g id="Group-4" transform="translate(135.000000, 23.000000)" fill="#FFFFFF" fill-rule="nonzero" opacity="1">
                <g id="facebook-logo" transform="translate(1053.000000, 663.000000)">
                    <path d="M9.91014211,0.549491998 L7.52694175,0.545653502 C4.84949788,0.545653502 3.11921603,2.32767506 3.11921603,5.08582602 L3.11921603,7.17914956 L0.723014654,7.17914956 C0.515954406,7.17914956 0.348279579,7.34765952 0.348279579,7.55551405 L0.348279579,10.5885013 C0.348279579,10.7963558 0.516145598,10.9646739 0.723014654,10.9646739 L3.11921603,10.9646739 L3.11921603,18.6178663 C3.11921603,18.8257208 3.28689086,18.9940388 3.4939511,18.9940388 L6.6203123,18.9940388 C6.82737255,18.9940388 6.99504737,18.8255289 6.99504737,18.6178663 L6.99504737,10.9646739 L9.79676563,10.9646739 C10.0038259,10.9646739 10.1715007,10.7963558 10.1715007,10.5885013 L10.1726479,7.55551405 C10.1726479,7.45571317 10.1330712,7.36013463 10.062904,7.28950631 C9.99273678,7.21887799 9.8971411,7.17914956 9.79772159,7.17914956 L6.99504737,7.17914956 L6.99504737,5.40461308 C6.99504737,4.55169937 7.19751903,4.11871707 8.30432584,4.11871707 L9.90975973,4.1181413 C10.1166288,4.1181413 10.2843036,3.94963134 10.2843036,3.74196874 L10.2843036,0.925664561 C10.2843036,0.718193877 10.11682,0.549875848 9.91014211,0.549491998 Z" id="Shape"></path>
                </g>
            </g>
        </g>
    </g>
</svg>