<?xml version="1.0" encoding="UTF-8"?>
<svg width="19px" height="18px" viewBox="0 0 19 18" version="1.1" xmlns="http://www.w3.org/2000/svg" xmlns:xlink="http://www.w3.org/1999/xlink">
    <!-- Generator: sketchtool 51 (57462) - http://www.bohemiancoding.com/sketch -->
    <title>212E39F3-E523-4ABB-85CC-F818D1F9F816</title>
    <desc>Created with sketchtool.</desc>
    <defs></defs>
    <g id="HomePage" stroke="none" stroke-width="1" fill="none" fill-rule="evenodd">
        <g id="Index_desktop" transform="translate(-1253.000000, -685.000000)">
            <rect fill="none" x="0" y="0" width="1440" height="7895"></rect>
            <g id="Group-4" transform="translate(135.000000, 23.000000)" fill="#FFFFFF" fill-rule="nonzero" opacity="1">
                <g id="linkedin-logo" transform="translate(1118.000000, 662.000000)">
                    <path d="M18.0947679,11.332887 L18.0947679,17.9570648 L14.2918899,17.9570648 L14.2918899,11.7765345 C14.2918899,10.2239349 13.7418446,9.16434645 12.3653288,9.16434645 C11.3145336,9.16434645 10.6892046,9.87843145 10.4140995,10.5691885 C10.3137762,10.8161314 10.2879529,11.1598437 10.2879529,11.5055138 L10.2879529,17.9570648 L6.48379612,17.9570648 C6.48379612,17.9570648 6.53503028,7.48927516 6.48379612,6.40473409 L10.2875816,6.40473409 L10.2875816,8.04223073 C10.2798676,8.0544779 10.2698436,8.06768318 10.2625833,8.07955543 L10.2875816,8.07955543 L10.2875816,8.04223073 C10.7929517,7.25620401 11.6954897,6.13333847 13.71565,6.13333847 C16.2184922,6.13329681 18.0947679,7.78445695 18.0947679,11.332887 Z M2.50448618,0.8359375 C1.20308909,0.8359375 0.351867809,1.69794665 0.351867809,2.83151806 C0.351867809,3.94038684 1.17846204,4.82855662 2.45399454,4.82855662 L2.47940536,4.82855662 C3.80600702,4.82855662 4.6310337,3.94055347 4.6310337,2.83151806 C4.60603539,1.69794665 3.80600702,0.8359375 2.50448618,0.8359375 Z M0.577801366,17.9570648 L4.38051435,17.9570648 L4.38051435,6.40473409 L0.577801366,6.40473409 L0.577801366,17.9570648 Z" id="LinkedIn"></path>
                </g>
            </g>
        </g>
    </g>
</svg>