<?xml version="1.0" encoding="UTF-8"?>
<svg width="18px" height="16px" viewBox="0 0 18 16" version="1.1" xmlns="http://www.w3.org/2000/svg" xmlns:xlink="http://www.w3.org/1999/xlink">
    <!-- Generator: sketchtool 51 (57462) - http://www.bohemiancoding.com/sketch -->
    <title>047BE91C-399F-4AE3-9D34-D1BE17E243A3</title>
    <desc>Created with sketchtool.</desc>
    <defs></defs>
    <g id="HomePage" stroke="none" stroke-width="1" fill="none" fill-rule="evenodd">
        <g id="Index_desktop" transform="translate(-1287.000000, -688.000000)">
            <rect fill="none" x="0" y="0" width="1440" height="7895"></rect>
            <g id="Group-4" transform="translate(135.000000, 23.000000)" fill="#FFFFFF" fill-rule="nonzero" opacity="1">
                <g id="telegram" transform="translate(1152.000000, 664.000000)">
                    <path d="M0.570492294,8.42615763 L4.65881668,9.96311707 L6.24124886,15.0891151 C6.34250181,15.4174168 6.74106701,15.5387651 7.005614,15.32091 L9.28451507,13.4496321 C9.52339396,13.2535804 9.86364408,13.2438106 10.113287,13.4263395 L14.2236126,16.4321675 C14.5066123,16.6393591 14.9075432,16.4831612 14.9785149,16.1387154 L17.9895481,1.55005128 C18.0670255,1.17379407 17.6999836,0.859908829 17.3442971,0.998473468 L0.565701705,7.51810054 C0.151641018,7.67894514 0.155248746,8.26942351 0.570492294,8.42615763 Z M5.98622391,9.14495424 L13.9763354,4.18814089 C14.1199348,4.09931893 14.2676742,4.29489404 14.1443609,4.41010643 L7.55020346,10.5841559 C7.31842174,10.8014748 7.16890804,11.0923057 7.12656159,11.4079781 L6.90193619,13.0846936 C6.87218722,13.3085655 6.55997091,13.3307858 6.49863954,13.1141222 L5.6347366,10.0565857 C5.53579023,9.70785075 5.67998106,9.33534658 5.98622391,9.14495424 Z" id="XMLID_497_"></path>
                </g>
            </g>
        </g>
    </g>
</svg>