<?xml version="1.0" encoding="UTF-8"?>
<svg width="19px" height="16px" viewBox="0 0 19 16" version="1.1" xmlns="http://www.w3.org/2000/svg" xmlns:xlink="http://www.w3.org/1999/xlink">
    <!-- Generator: sketchtool 51 (57462) - http://www.bohemiancoding.com/sketch -->
    <title>6A137F14-D7C8-4255-B241-7774E48024EA</title>
    <desc>Created with sketchtool.</desc>
    <defs></defs>
    <g id="HomePage" stroke="none" stroke-width="1" fill="none" fill-rule="evenodd">
        <g id="Index_desktop" transform="translate(-1218.000000, -688.000000)">
            <rect fill="logo" x="0" y="0" width="1440" height="7895"></rect>
            <g id="Group-4" transform="translate(135.000000, 23.000000)" fill="#FFFFFF" fill-rule="nonzero" opacity="1">
                <g id="twitter-logo-silhouette" transform="translate(1083.000000, 665.000000)">
                    <path d="M18.1895357,2.39554092 C17.5364974,2.68754323 16.8357966,2.88557586 16.0995811,2.97398694 C16.8513072,2.51973186 17.4267348,1.79921959 17.6994598,0.943311401 C16.9943233,1.3639808 16.2159828,1.66944079 15.3866458,1.83502871 C14.7225326,1.12010431 13.7778956,0.67480151 12.730135,0.67480151 C10.7200235,0.67480151 9.09019634,2.31947579 9.09019634,4.34678691 C9.09019634,4.63431308 9.12234815,4.91513967 9.18444841,5.18367882 C6.15985884,5.03037834 3.47786435,3.56808482 1.68284237,1.34607624 C1.36906505,1.88760142 1.19056307,2.51859089 1.19056307,3.19214757 C1.19056307,4.46650171 1.83362828,5.5909198 2.80931542,6.24876611 C2.21281091,6.2286381 1.65179225,6.06305018 1.16064362,5.78781145 L1.16064362,5.83368457 C1.16064362,7.6126138 2.41572391,9.09728802 4.07990629,9.43519271 C3.77500043,9.51798667 3.45348232,9.56385979 3.12086038,9.56385979 C2.88582456,9.56385979 2.65852952,9.54036737 2.43567021,9.49560597 C2.89910276,10.955676 4.24289771,12.0174282 5.83503567,12.0465377 C4.58992852,13.031113 3.01996922,13.6162586 1.31476357,13.6162586 C1.02096154,13.6162586 0.731566247,13.598354 0.446635681,13.5659093 C2.05761826,14.6097861 3.97017265,15.2184242 6.02574317,15.2184242 C12.7213216,15.2184242 16.3812356,9.62204961 16.3812356,4.76859728 L16.36903,4.29310248 C17.0841397,3.77840489 17.7027939,3.1317343 18.1895357,2.39554092 Z" id="Shape"></path>
                </g>
            </g>
        </g>
    </g>
</svg>